Coordinates
version=1
nRows=11
nColumns=46
inDegrees=yes

Units are S.I. units (second, meters, Newtons, ...)
Angles are in degrees.

endheader
time	pelvis_tilt	pelvis_list	pelvis_rotation	pelvis_tx	pelvis_ty	pelvis_tz	bb_angle	bb_tx	bb_ty	bb_tz	hip_flexion_r	hip_adduction_r	hip_rotation_r	knee_angle_r	knee_angle_r_beta	ankle_angle_r	subtalar_angle_r	mtp_angle_r	crank_angle_r	hip_flexion_l	hip_adduction_l	hip_rotation_l	knee_angle_l	knee_angle_l_beta	ankle_angle_l	subtalar_angle_l	mtp_angle_l	crank_angle_l	lumbar_extension	lumbar_bending	lumbar_rotation	arm_flex_r	arm_add_r	arm_rot_r	elbow_flex_r	pro_sup_r	wrist_flex_r	wrist_dev_r	arm_flex_l	arm_add_l	arm_rot_l	elbow_flex_l	pro_sup_l	wrist_flex_l	wrist_dev_l
      5.00000000	     -7.21557242	      3.44174810	      8.88829390	      0.05752047	      1.17621955	     -0.24009480	      0.00000000	      0.50000000	      0.00000000	      0.25000000	     60.41919710	     -8.87866896	      7.05673906	     92.18952202	      1.60901070	    -34.69707179	     -6.76659076	      0.00000000	      0.00000000	     47.95777128	      3.98191252	      1.83836172	     46.45120236	      0.81072642	      8.79602268	     -1.80955560	      0.00000000	      0.00000000	    -65.67210226	      5.24519296	     -5.73261887	     89.63380825	    -11.43973378	     36.08740895	     45.74655796	     30.00553211	      0.00000000	      0.00000000	     89.77409295	    -13.28689574	     39.75732128	     47.51603147	     25.72806171	      0.00000000	      0.00000000
      5.00500000	     -6.52466109	      3.31140935	      8.14012576	      0.05898176	      1.17675562	     -0.24100007	      0.00000000	      0.50000000	      0.00000000	      0.25000000	     60.99801924	     -8.17163607	      7.51977749	     93.87084506	      1.63835532	    -34.49613267	     -6.74898019	      0.00000000	      0.00000000	     45.55274682	      3.10303721	      0.97156302	     44.14997113	      0.77056236	      8.22581822	     -0.54497001	      0.00000000	      0.00000000	    -66.01302949	      5.06753067	     -5.34090890	     89.63849908	    -11.05907530	     36.70905721	     45.01806585	     29.86031513	      0.00000000	      0.00000000	     89.77249053	    -13.57954700	     41.07948312	     46.40222155	     25.52230037	      0.00000000	      0.00000000
      5.01000000	     -6.29187652	      2.72887537	      7.59198150	      0.06016645	      1.17632617	     -0.24270446	      0.00000000	      0.50000000	      0.00000000	      0.25000000	     62.08582719	     -7.40943735	      7.57449925	     95.48558757	      1.66653789	    -34.17590039	     -6.62959271	      0.00000000	      0.00000000	     43.84441660	      2.14894803	      0.55761943	     42.11700303	      0.73508037	      7.51522127	      0.61597485	      0.00000000	      0.00000000	    -65.89082976	      5.38487804	     -4.66939896	     89.65005907	    -10.60243800	     37.16688151	     44.46064385	     29.72305134	      0.00000000	      0.00000000	     89.76301356	    -13.94790759	     42.09615737	     45.59957289	     25.37847832	      0.00000000	      0.00000000
      5.01500000	     -6.08792686	      2.08162681	      7.08529024	      0.06131751	      1.17591025	     -0.24463961	      0.00000000	      0.50000000	      0.00000000	      0.25000000	     63.20288665	     -6.65052424	      7.55263085	     97.06227858	      1.69405634	    -33.73151102	     -6.41086024	      0.00000000	      0.00000000	     42.18241677	      1.20080004	      0.17756439	     40.15740993	      0.70087902	      6.91300880	      1.63755276	      0.00000000	      0.00000000	    -65.72146903	      5.82183427	     -3.97928337	     89.66021173	    -10.05154045	     37.63111558	     43.80240727	     29.48971901	      0.00000000	      0.00000000	     89.75068468	    -14.40040669	     43.38316286	     44.75670629	     25.25072350	      0.00000000	      0.00000000
      5.02000000	     -6.01977011	      1.33950276	      6.66489814	      0.06233506	      1.17542907	     -0.24668386	      0.00000000	      0.50000000	      0.00000000	      0.25000000	     64.47565333	     -5.93535619	      7.39806015	     98.55520981	      1.72011291	    -33.31490608	     -6.56698382	      0.00000000	      0.00000000	     40.68868487	      0.28776429	     -0.00322027	     38.24071031	      0.66742630	      6.13256007	      2.34010459	      0.00000000	      0.00000000	    -65.56839689	      6.38888948	     -3.19565039	     89.66213497	     -9.65513863	     37.74485755	     43.80062625	     29.48161195	      0.00000000	      0.00000000	     89.72119356	    -14.68570419	     43.49101369	     44.47687381	     25.20957412	      0.00000000	      0.00000000
      5.02500000	     -5.49199108	      0.76980117	      5.82626283	      0.06383176	      1.17589331	     -0.24779744	      0.00000000	      0.50000000	      0.00000000	      0.25000000	     65.21990397	     -4.79967287	      7.56751719	     99.93720392	      1.74423325	    -32.78687175	     -6.26247208	      0.00000000	      0.00000000	     38.57530980	     -1.05751493	     -1.39375975	     36.24499355	      0.63259447	      5.51722444	      5.55487530	      0.00000000	      0.00000000	    -65.76859950	      6.53997652	     -2.42172720	     89.67560532	     -8.84792400	     38.00062558	     42.85823229	     29.15028442	      0.00000000	      0.00000000	     89.71728374	    -15.02271245	     45.01157145	     43.15702732	     25.09725948	      0.00000000	      0.00000000
      5.03000000	     -5.18520847	      0.11619234	      5.26367133	      0.06502302	      1.17601221	     -0.24965747	      0.00000000	      0.50000000	      0.00000000	      0.25000000	     66.20930342	     -3.99498498	      7.50364625	    101.26616349	      1.76742797	    -32.17862208	     -6.11324939	      0.00000000	      0.00000000	     36.80043223	     -2.07008235	     -2.12895906	     34.44557706	      0.60118873	      4.72629067	      6.70246614	      0.00000000	      0.00000000	    -65.85576929	      7.00077996	     -1.73110500	     89.68298664	     -8.21539912	     38.17729754	     42.57078957	     29.02373121	      0.00000000	      0.00000000	     89.69512279	    -15.31179824	     45.59210209	     42.39920130	     25.03402871	      0.00000000	      0.00000000
      5.03500000	     -5.04029907	     -0.57995115	      4.82029171	      0.06601598	      1.17612882	     -0.25175079	      0.00000000	      0.50000000	      0.00000000	      0.25000000	     67.35905092	     -3.34165268	      7.30867845	    102.49944186	      1.78895274	    -31.43456055	     -5.99510709	      0.00000000	      0.00000000	     35.29683879	     -2.97956096	     -2.54938651	     32.88266517	      0.57391077	      3.96307902	      6.52236087	      0.00000000	      0.00000000	    -65.82787331	      7.60804849	     -1.02310333	     89.69322731	     -7.61116883	     38.33021805	     42.35634381	     28.92750120	      0.00000000	      0.00000000	     89.66681112	    -15.55336990	     46.00321435	     41.76269793	     24.95742228	      0.00000000	      0.00000000
      5.04000000	     -4.65083797	     -1.14121377	      4.22846752	      0.06714305	      1.17675780	     -0.25348373	      0.00000000	      0.50000000	      0.00000000	      0.25000000	     68.22155675	     -2.48908715	      7.40007995	    103.63657752	      1.80879950	    -30.74020271	     -5.51760155	      0.00000000	      0.00000000	     33.42247462	     -3.90721983	     -3.51644652	     31.19676799	      0.54448632	      3.19350414	      7.71157170	      0.00000000	      0.00000000	    -66.02930676	      8.02509143	     -0.40166816	     89.70272955	     -6.82241930	     38.47398572	     41.83601955	     28.74774454	      0.00000000	      0.00000000	     89.65055411	    -15.74880853	     46.79546065	     40.69292668	     24.87513028	      0.00000000	      0.00000000
      5.04500000	     -4.43171077	     -1.75903336	      3.65947460	      0.06827386	      1.17721008	     -0.25517600	      0.00000000	      0.50000000	      0.00000000	      0.25000000	     69.24378815	     -1.71438015	      7.30268540	    104.70126550	      1.82738181	    -29.90350532	     -5.20938081	      0.00000000	      0.00000000	     31.82454212	     -4.85643478	     -4.48537232	     29.74206462	      0.51909695	      2.57023022	      8.88053801	      0.00000000	      0.00000000	    -66.07770091	      8.44671197	      0.20308063	     89.71161377	     -5.90067224	     38.44667006	     41.16077224	     28.47593835	      0.00000000	      0.00000000	     89.63005397	    -15.92261319	     47.68842330	     39.52279430	     24.81422289	      0.00000000	      0.00000000
      5.05000000	     -4.24289903	     -2.31424851	      3.11037930	      0.06933030	      1.17760526	     -0.25696266	      0.00000000	      0.50000000	      0.00000000	      0.25000000	     70.27425249	     -0.98153987	      7.26686301	    105.67383642	      1.84435638	    -29.10025160	     -4.89059141	      0.00000000	      0.00000000	     30.32021702	     -5.69558325	     -5.60518745	     28.45652310	      0.49666002	      2.01807024	      9.88927179	      0.00000000	      0.00000000	    -66.12847167	      8.88309906	      0.71344412	     89.72027737	     -5.06669602	     38.48284926	     40.64465690	     28.19496729	      0.00000000	      0.00000000	     89.60492678	    -16.14867824	     48.52676979	     38.47800933	     24.81977519	      0.00000000	      0.00000000
